<svg xmlns="http://www.w3.org/2000/svg" viewBox="-60 -60 580 580" width="100%" height="100%">
  <!-- Fundo Off-White com cantos arredondados perfeito -->
  <rect x="-60" y="-60" width="580" height="580" rx="72" fill="#f6f8fa"/>

  <!-- Logo INTACTA do PyG, mas com "miter" ativado para forçar quinas afiadas -->
  <g stroke-width="2" stroke-linejoin="miter" stroke-miterlimit="10">
    <path d="M325.2 96.2L326.3 96.5L327.3 96.8L328.0 97.2L354.6 63.6L209.0 61.0L307.7 102.4L308.0 102.0L308.7 101.2L309.4 100.4L310.2 99.7L311.0 99.0L311.9 98.4L312.8 97.8L313.7 97.3L314.7 96.8L315.7 96.5L316.8 96.2L317.8 95.9L318.9 95.7L319.9 95.6L321.0 95.6L322.1 95.6L323.1 95.7L324.2 95.9Z" fill="#FFC107" stroke="#FFC107" fill-rule="evenodd"/>
    <path d="M191.9 110.9L303.0 108.6L194.6 63.7L183.0 62.8L90.5 126.3L139.1 117.7L151.3 115.3L159.6 113.9L159.7 112.9L159.9 111.8L160.2 110.8L160.5 109.7L160.8 108.7L161.3 107.7L161.8 106.8L162.4 105.9L163.0 105.0L163.7 104.2L164.4 103.4L165.2 102.7L166.0 102.0L166.9 101.4L167.8 100.8L168.7 100.3L169.7 99.8L170.7 99.5L171.8 99.2L172.8 98.9L173.9 98.7L174.9 98.6L176.0 98.6L177.1 98.6L178.1 98.7L179.2 98.9L180.2 99.2L181.3 99.5L182.3 99.8L183.3 100.3L184.2 100.8L185.1 101.4L186.0 102.0L186.8 102.7L187.6 103.4L188.3 104.2L189.0 105.0L189.6 105.9L190.2 106.8L190.7 107.7L191.2 108.7L191.5 109.7L191.8 110.8Z" fill="#FF9800" stroke="#FF9800" fill-rule="evenodd"/>
    <path d="M337.0 115.4L336.8 116.2L336.5 117.3L336.2 118.3L335.7 119.3L335.2 120.2L334.6 121.1L334.0 122.0L333.3 122.8L332.6 123.6L331.8 124.3L331.0 125.0L330.1 125.6L329.4 126.1L360.7 223.7L360.9 223.6L362.0 223.6L363.1 223.6L364.1 223.7L365.2 223.9L366.2 224.2L367.3 224.5L368.3 224.8L369.3 225.3L370.2 225.8L371.1 226.4L372.0 227.0L372.8 227.7L373.6 228.4L374.3 229.2L375.0 230.0L375.6 230.9L376.2 231.8L376.7 232.7L377.2 233.7L377.5 234.7L377.8 235.8L378.1 236.8L378.3 237.9L378.4 238.9L378.4 239.0L398.7 242.5L396.3 221.6L362.4 68.3L334.1 102.2L334.6 102.9L335.2 103.8L335.7 104.7L336.2 105.7L336.5 106.7L336.8 107.8L337.1 108.8L337.3 109.9L337.4 110.9L337.4 112.0L337.4 113.1L337.3 114.1L337.2 114.6L339.0 115.4Z" fill="#FF9800" stroke="#FF9800" fill-rule="evenodd"/>
    <path d="M238.1 156.8L249.6 157.2L253.4 157.2L267.0 160.1L269.4 160.3L276.7 161.2L276.8 160.7L277.3 159.7L277.8 158.8L278.4 157.9L279.0 157.0L279.7 156.2L280.4 155.4L281.2 154.7L282.0 154.0L282.9 153.4L283.8 152.8L284.7 152.3L285.7 151.8L286.7 151.5L287.8 151.2L288.8 150.9L289.9 150.7L290.9 150.6L292.0 150.6L293.1 150.6L294.1 150.7L295.2 150.9L296.1 151.1L301.8 140.4L310.2 124.4L310.2 124.3L309.4 123.6L308.7 122.8L308.0 122.0L307.4 121.1L306.8 120.2L306.3 119.3L305.8 118.3L305.5 117.3L305.2 116.2L305.1 116.1L192.0 118.4L191.8 119.2L191.5 120.3L191.2 121.3L190.7 122.3L190.2 123.2L190.0 123.5L213.2 146.2L213.8 145.8L214.7 145.3L215.7 144.8L216.7 144.5L217.8 144.2L218.8 143.9L219.9 143.7L220.9 143.6L222.0 143.6L223.1 143.6L224.1 143.7L225.2 143.9L226.2 144.2L227.3 144.5L228.3 144.8L229.3 145.3L230.2 145.8L231.1 146.4L232.0 147.0L232.8 147.7L233.6 148.4L234.3 149.2L235.0 150.0L235.6 150.9L236.2 151.8L236.7 152.7L237.2 153.7L237.5 154.7L237.8 155.8L238.1 156.8Z" fill="#F57C00" stroke="#F57C00" fill-rule="evenodd"/>
    <path d="M162.4 124.1L161.8 123.2L161.3 122.3L160.9 121.5L140.5 125.1L74.2 138.2L51.3 256.4L86.1 221.6L85.8 221.2L85.3 220.3L84.8 219.3L84.5 218.3L84.2 217.2L83.9 216.2L83.7 215.1L83.6 214.1L83.6 213.0L83.6 211.9L83.7 210.9L83.9 209.8L84.2 208.8L84.5 207.7L84.8 206.7L85.3 205.7L85.8 204.8L86.4 203.9L87.0 203.0L87.7 202.2L88.4 201.4L89.2 200.7L90.0 200.0L90.9 199.4L91.8 198.8L92.7 198.3L93.7 197.8L94.7 197.5L95.8 197.2L96.8 196.9L97.9 196.7L98.9 196.6L100.0 196.6L101.1 196.6L102.1 196.7L103.2 196.9L104.2 197.2L105.3 197.5L106.3 197.8L106.8 198.1L163.3 125.3L163.0 125.0Z" fill="#F57C00" stroke="#F57C00" fill-rule="evenodd"/>
    <path d="M171.8 130.8L170.7 130.5L169.7 130.2L169.2 129.9L112.7 202.7L113.0 203.0L113.6 203.9L114.2 204.8L114.7 205.7L115.2 206.7L115.5 207.7L115.8 208.8L116.1 209.8L116.3 210.9L116.4 211.9L116.4 213.0L116.4 214.1L116.3 214.3L145.0 223.5L145.4 222.9L146.0 222.0L146.7 221.2L147.4 220.4L148.2 219.7L149.0 219.0L149.9 218.4L150.8 217.8L151.7 217.3L152.7 216.8L153.7 216.5L154.8 216.2L155.8 215.9L156.9 215.7L157.9 215.6L159.0 215.6L160.1 215.6L161.1 215.7L162.2 215.9L163.2 216.2L164.3 216.5L165.3 216.8L166.3 217.3L166.7 217.5L208.7 169.5L208.4 169.1L207.8 168.2L207.3 167.3L206.8 166.3L206.5 165.3L206.2 164.2L205.9 163.2L205.7 162.1L205.6 161.1L205.6 160.0L205.6 158.9L205.7 157.9L205.9 156.8L206.2 155.8L206.5 154.7L206.8 153.7L207.3 152.7L207.8 151.8L208.0 151.5L184.8 128.8L184.2 129.2L183.3 129.7L182.3 130.2L181.3 130.5L180.2 130.8L179.2 131.1L178.1 131.3L177.1 131.4L176.0 131.4L174.9 131.4L173.9 131.3L172.8 131.1Z" fill="#1E88E5" stroke="#1E88E5" fill-rule="evenodd"/>
    <path d="M316.9 127.9L312.6 135.9L302.8 154.6L302.8 154.7L303.6 155.4L304.3 156.2L305.0 157.0L305.6 157.9L306.2 158.8L306.7 159.7L307.2 160.7L307.5 161.7L307.8 162.8L308.1 163.8L308.3 164.9L308.4 165.9L308.4 167.0L308.4 168.1L308.3 169.1L308.1 170.2L307.8 171.2L307.5 172.3L307.2 173.3L306.7 174.3L306.2 175.2L305.8 175.9L321.7 192.4L353.5 225.6L341.9 189.6L322.3 128.3L322.1 128.4L321.0 128.4L319.9 128.4L318.9 128.3L317.8 128.1Z" fill="#F57C00" stroke="#F57C00" fill-rule="evenodd"/>
    <path d="M238.4 216.9L278.2 175.9L277.8 175.2L277.3 174.3L276.8 173.3L276.5 172.3L276.2 171.2L275.9 170.2L275.7 169.1L275.7 168.8L266.9 167.7L265.9 167.5L237.6 165.1L237.5 165.3L237.2 166.3L236.7 167.3L236.2 168.2L235.6 169.1L235.0 170.0L234.3 170.8L233.6 171.6L232.8 172.3L232.0 173.0L231.1 173.6L230.2 174.2L229.3 174.7L228.3 175.2L227.7 175.4L229.5 189.8L230.6 200.4L230.7 200.8L232.1 214.7L232.1 214.7L233.2 214.9L234.2 215.2L235.3 215.5L236.3 215.8L237.3 216.3L238.2 216.8Z" fill="#42A5F5" stroke="#42A5F5" fill-rule="evenodd"/>
    <path d="M214.3 174.5L177.1 217.0L172.3 222.5L172.6 222.9L173.2 223.8L173.7 224.7L174.2 225.7L174.5 226.7L174.8 227.8L174.9 228.0L201.2 227.7L214.0 227.5L214.2 226.8L214.5 225.7L214.8 224.7L215.3 223.7L215.8 222.8L216.4 221.9L217.0 221.0L217.7 220.2L218.4 219.4L219.2 218.7L220.0 218.0L220.9 217.4L221.8 216.8L222.7 216.3L223.7 215.8L224.6 215.5L223.2 201.8L222.3 198.7L221.3 188.4L220.0 176.3L219.9 176.3L218.8 176.1L217.8 175.8L216.7 175.5L215.7 175.2L214.7 174.7Z" fill="#1E88E5" stroke="#1E88E5" fill-rule="evenodd"/>
    <path d="M245.8 235.4L260.9 243.8L269.5 249.3L270.2 248.7L271.0 248.0L271.9 247.4L272.8 246.8L273.7 246.3L274.7 245.8L275.7 245.5L276.8 245.2L277.8 244.9L278.9 244.7L283.3 200.3L284.3 196.7L286.2 182.3L285.7 182.2L284.7 181.7L283.8 181.2L283.7 181.1L273.8 191.5L263.8 203.6L244.1 222.6L244.2 222.8L244.7 223.7L245.2 224.7L245.5 225.7L245.8 226.8L246.1 227.8L246.3 228.9L246.4 229.9L246.4 231.0L246.4 232.1L246.3 233.1L246.1 234.2L245.8 235.2Z" fill="#1E88E5" stroke="#1E88E5" fill-rule="evenodd"/>
    <path d="M294.1 183.3L293.9 183.3L286.6 245.6L287.3 245.8L288.3 246.3L289.2 246.8L290.1 247.4L291.0 248.0L291.8 248.7L292.6 249.4L293.3 250.2L294.0 251.0L294.6 251.9L295.2 252.8L295.5 253.4L345.6 240.4L345.6 240.0L345.6 238.9L345.7 237.9L345.9 236.8L346.2 235.8L346.5 234.7L346.8 233.7L347.3 232.7L347.8 231.8L348.2 231.1L300.3 181.1L300.2 181.2L299.3 181.7L298.3 182.2L297.3 182.5L296.2 182.8L295.2 183.1Z" fill="#1E88E5" stroke="#1E88E5" fill-rule="evenodd"/>
    <path d="M110.0 226.0L109.2 226.6L140.8 309.7L140.9 309.7L141.9 309.6L143.0 309.6L144.1 309.6L145.1 309.7L146.2 309.9L147.2 310.2L148.3 310.5L149.3 310.8L150.3 311.3L151.2 311.8L152.1 312.4L153.0 313.0L153.8 313.7L154.6 314.4L155.3 315.2L156.0 316.0L156.6 316.9L157.0 317.4L192.1 305.7L198.7 303.5L198.6 303.1L198.6 302.0L198.6 300.9L198.7 299.9L198.9 298.8L199.2 297.8L199.5 296.7L199.8 295.7L200.3 294.7L200.8 293.8L201.4 292.9L202.0 292.0L202.1 291.9L182.4 267.2L166.0 246.8L165.3 247.2L164.3 247.5L163.2 247.8L162.2 248.1L161.1 248.3L160.1 248.4L159.0 248.4L157.9 248.4L156.9 248.3L155.8 248.1L154.8 247.8L153.7 247.5L152.7 247.2L151.7 246.7L150.8 246.2L149.9 245.6L149.0 245.0L148.2 244.3L147.4 243.6L146.7 242.8L146.0 242.0L145.4 241.1L144.8 240.2L144.3 239.3L143.8 238.3L143.5 237.3L143.2 236.2L142.9 235.2L142.7 234.1L142.6 233.1L142.6 232.0L142.6 230.9L142.7 230.7L114.0 221.5L113.6 222.1L113.0 223.0L112.3 223.8L111.6 224.6L110.8 225.3Z" fill="#1565C0" stroke="#1565C0" fill-rule="evenodd"/>
    <path d="M91.8 227.2L91.4 227.0L51.0 267.8L50.7 269.3L117.5 376.2L133.3 339.2L133.0 339.0L132.2 338.3L131.4 337.6L130.7 336.8L130.0 336.0L129.4 335.1L128.8 334.2L128.3 333.3L127.8 332.3L127.5 331.3L127.2 330.2L126.9 329.2L126.7 328.1L126.6 327.1L126.6 326.0L126.6 324.9L126.7 323.9L126.9 322.8L127.2 321.8L127.5 320.7L127.8 319.7L128.3 318.7L128.8 317.8L129.4 316.9L130.0 316.0L130.7 315.2L131.4 314.4L132.2 313.7L133.0 313.0L133.8 312.4L102.2 229.3L102.1 229.3L101.1 229.4L100.0 229.4L98.9 229.4L97.9 229.3L96.8 229.1L95.8 228.8L94.7 228.5L93.7 228.2L92.7 227.7Z" fill="#512DA8" stroke="#512DA8" fill-rule="evenodd"/>
    <path d="M199.2 235.2L175.0 235.5L174.8 236.2L174.5 237.3L174.2 238.3L173.7 239.3L173.2 240.2L172.6 241.1L172.0 242.0L171.9 242.1L208.0 287.2L208.7 286.8L209.7 286.5L210.8 286.2L211.8 285.9L212.9 285.7L213.9 285.6L216.4 270.8L217.4 268.8L219.3 258.2L222.5 245.6L221.8 245.2L220.9 244.6L220.0 244.0L219.2 243.3L218.4 242.6L217.7 241.8L217.0 241.0L216.4 240.1L215.8 239.2L215.3 238.3L214.8 237.3L214.5 236.3L214.2 235.2L214.1 235.0Z" fill="#1565C0" stroke="#1565C0" fill-rule="evenodd"/>
    <path d="M230.1 247.4L227.7 257.8L224.2 274.2L221.7 287.0L222.3 287.3L223.2 287.8L224.1 288.4L225.0 289.0L225.8 289.7L226.3 290.1L236.0 283.8L252.9 274.0L265.5 266.2L265.2 265.2L264.9 264.2L264.7 263.1L264.6 262.1L264.6 261.0L264.6 259.9L264.7 258.9L264.9 257.8L265.2 256.8L265.3 256.1L241.9 242.3L241.6 242.6L240.8 243.3L240.0 244.0L239.1 244.6L238.2 245.2L237.3 245.7L236.3 246.2L235.3 246.5L234.2 246.8L233.2 247.1L232.1 247.3L231.1 247.4Z" fill="#1565C0" stroke="#1565C0" fill-rule="evenodd"/>
    <path d="M370.5 254.3L370.3 254.1L370.2 254.2L369.3 254.7L368.3 255.2L367.3 255.5L366.2 255.8L365.2 256.1L364.1 256.3L363.1 256.4L362.0 256.4L360.9 256.4L359.9 256.3L358.8 256.1L357.8 255.8L356.7 255.5L355.7 255.2L354.9 254.8L286.0 339.9L286.0 340.0L286.6 340.9L287.2 341.8L287.7 342.7L288.2 343.7L288.2 343.9L356.6 333.3L363.9 332.7L371.3 331.6L395.4 267.0L398.6 251.0L376.9 246.7L376.7 247.3L376.2 248.2L375.6 249.1L375.0 250.0L374.3 250.8L373.6 251.6L372.8 252.3L372.0 253.0L371.1 253.6L370.4 254.1Z" fill="#6D44C6" stroke="#6D44C6" fill-rule="evenodd"/>
    <path d="M278.2 334.4L278.3 334.5L279.3 334.8L280.1 335.2L324.1 280.8L349.0 250.1L349.0 250.0L348.4 249.1L347.8 248.2L347.5 247.6L302.5 259.3L297.4 260.6L297.4 261.0L297.4 262.1L297.3 263.1L297.1 264.2L296.8 265.2L296.5 266.3L296.2 267.3L295.7 268.3L295.2 269.2L294.6 270.1L294.0 271.0L293.3 271.8L292.6 272.6L291.8 273.3L291.0 274.0L290.1 274.6L289.2 275.2L288.3 275.7L287.3 276.2L286.3 276.5L285.2 276.8L284.2 277.1L283.3 277.2Z" fill="#815FE0" stroke="#815FE0" fill-rule="evenodd"/>
    <path d="M230.8 297.8L231.1 298.8L231.3 299.9L231.4 300.9L231.4 302.0L231.4 303.1L231.3 304.1L231.1 305.2L230.8 306.2L230.5 307.3L230.2 308.3L229.7 309.3L229.2 310.2L228.6 311.1L228.0 312.0L227.3 312.8L226.6 313.6L225.8 314.3L225.0 315.0L224.1 315.6L223.2 316.2L222.3 316.7L221.3 317.2L220.3 317.5L219.2 317.8L218.2 318.1L217.1 318.3L216.1 318.4L215.0 318.4L213.9 318.4L212.9 318.3L211.8 318.1L210.8 317.8L209.7 317.5L208.7 317.2L207.7 316.7L206.8 316.2L205.9 315.6L205.0 315.0L204.2 314.3L203.4 313.6L202.7 312.8L202.0 312.0L201.4 311.1L201.0 310.6L159.3 324.5L159.4 324.9L159.4 325.2L258.0 343.4L258.3 342.7L258.8 341.8L259.4 340.9L260.0 340.0L260.7 339.2L261.4 338.4L262.2 337.7L263.0 337.0L263.9 336.4L264.8 335.8L265.7 335.3L266.7 334.8L267.7 334.5L268.8 334.2L269.8 333.9L270.6 333.8L271.3 326.7L275.8 276.6L275.7 276.5L274.7 276.2L273.7 275.7L272.8 275.2L271.9 274.6L271.0 274.0L270.2 273.3L269.5 272.6L258.9 279.2L256.8 280.5L230.5 296.8Z" fill="#6D44C6" stroke="#6D44C6" fill-rule="evenodd"/>
    <path d="M245.4 408.2L252.2 408.2L252.9 405.9L253.3 402.2L264.8 364.2L263.9 363.6L263.0 363.0L262.2 362.3L261.4 361.6L260.7 360.8L260.0 360.0L259.4 359.1L258.8 358.2L258.3 357.3L257.8 356.3L257.5 355.3L257.2 354.2L256.9 353.2L256.7 352.1L256.6 351.1L256.6 350.8L158.0 332.6L157.7 333.3L157.2 334.2L156.6 335.1L156.0 336.0L155.3 336.8L154.6 337.6L153.8 338.3L153.0 339.0L152.1 339.6L151.2 340.2L150.3 340.7L149.3 341.2L148.3 341.5L147.2 341.8L146.2 342.1L145.1 342.3L144.1 342.4L143.0 342.4L141.9 342.4L140.9 342.3L140.5 342.2L125.2 379.6Z" fill="#512DA8" stroke="#512DA8" fill-rule="evenodd"/>
    <path d="M260.8 405.6L359.6 343.1L361.9 340.6L289.3 351.4L289.3 352.1L289.1 353.2L288.8 354.2L288.5 355.3L288.2 356.3L287.7 357.3L287.2 358.2L286.6 359.1L286.0 360.0L285.3 360.8L284.6 361.6L283.8 362.3L283.0 363.0L282.1 363.6L281.2 364.2L280.3 364.7L279.3 365.2L278.3 365.5L277.2 365.8L276.2 366.1L275.1 366.3L274.1 366.4L273.0 366.4L272.2 366.4Z" fill="#512DA8" stroke="#512DA8" fill-rule="evenodd"/>
  </g>
</svg>
